<?xml version="1.0" encoding="UTF-8" standalone="no"?>
<!DOCTYPE svg PUBLIC "-//W3C//DTD SVG 1.1//EN" "http://www.w3.org/Graphics/SVG/1.1/DTD/svg11.dtd">
<svg xmlns="http://www.w3.org/2000/svg" version="1.1" viewBox="0.00 0.00 498.00 163.00">
<path fill="#0099ff" d="
  M 77.5781 43.7049
  A 9.53 9.30 96.7 0 1 69.4535 33.1550
  A 9.53 9.30 96.7 0 1 79.8019 24.7751
  A 9.53 9.30 96.7 0 1 87.9265 35.3250
  A 9.53 9.30 96.7 0 1 77.5781 43.7049
  Z
  M 77.48 28.77
  C 75.07 32.98 84.79 35.42 78.58 41.15
  Q 77.88 41.79 78.82 41.90
  C 85.77 42.68 88.60 29.40 80.59 27.42
  Q 78.55 26.91 77.48 28.77
  Z"
/>
<path fill="#0099ff" d="
  M 218.10 34.24
  A 9.41 9.41 0.0 0 1 208.69 43.65
  A 9.41 9.41 0.0 0 1 199.28 34.24
  A 9.41 9.41 0.0 0 1 208.69 24.83
  A 9.41 9.41 0.0 0 1 218.10 34.24
  Z
  M 207.30 29.23
  C 205.68 33.43 214.65 35.37 208.52 41.22
  Q 207.99 41.73 208.71 41.87
  C 215.29 43.16 218.86 29.69 210.76 27.46
  Q 208.24 26.77 207.30 29.23
  Z"
/>
<path fill="#0099ff" d="
  M 36.87 49.25
  C 43.06 45.35 49.30 44.26 55.52 48.69
  C 59.61 51.59 61.47 55.65 61.76 60.67
  C 62.53 74.07 58.66 93.58 40.38 91.39
  C 37.95 91.10 36.06 89.69 33.93 88.63
  Q 33.39 88.36 33.45 88.95
  C 33.89 93.77 35.16 98.77 36.54 103.46
  Q 36.76 104.22 36.02 104.49
  L 24.30 108.81
  Q 24.01 108.91 23.93 108.61
  C 18.60 88.04 17.43 65.95 23.77 45.73
  Q 23.93 45.19 24.49 45.26
  L 36.57 46.80
  Q 37.31 46.89 37.00 47.57
  L 36.42 48.86
  Q 36.00 49.80 36.87 49.25
  Z
  M 36.30 61.44
  L 34.54 57.99
  Q 34.14 57.20 33.98 58.07
  Q 32.47 66.26 32.18 75.65
  Q 32.16 76.21 32.58 76.58
  Q 35.74 79.38 39.00 79.96
  C 48.98 81.73 50.73 69.69 49.34 63.05
  C 47.97 56.49 40.83 58.33 37.31 61.62
  Q 36.68 62.20 36.30 61.44
  Z"
/>
<path fill="#0099ff" d="
  M 356.84 49.26
  Q 357.93 48.64 359.04 48.00
  C 365.66 44.18 372.78 45.44 377.96 50.89
  C 383.99 57.23 382.07 70.88 379.64 78.61
  C 376.85 87.50 369.14 92.92 359.73 91.27
  C 357.64 90.90 355.76 89.54 353.87 88.60
  Q 353.38 88.36 353.43 88.91
  C 353.94 93.97 355.22 98.68 356.51 103.57
  Q 356.69 104.24 356.04 104.48
  L 344.31 108.80
  Q 344.01 108.91 343.93 108.61
  C 338.60 88.10 337.44 66.03 343.78 45.71
  Q 343.94 45.19 344.48 45.26
  L 356.57 46.80
  Q 357.31 46.89 357.00 47.57
  L 356.42 48.87
  Q 356.04 49.71 356.84 49.26
  Z
  M 356.22 61.27
  L 354.54 57.99
  Q 354.13 57.17 353.97 58.07
  Q 352.32 67.53 352.21 75.68
  Q 352.20 76.21 352.60 76.57
  Q 355.68 79.33 358.56 79.84
  C 368.45 81.60 370.52 71.49 369.54 64.08
  C 368.57 56.75 361.45 57.78 357.45 61.49
  Q 356.69 62.20 356.22 61.27
  Z"
/>
<path fill="#0099ff" d="
  M 171.34 72.74
  Q 174.95 61.67 177.02 48.42
  A 0.61 0.61 0.0 0 1 177.51 47.92
  L 190.23 45.68
  Q 190.94 45.56 190.81 46.26
  Q 187.31 65.09 181.63 81.54
  C 178.76 89.82 175.10 98.96 168.13 104.36
  C 161.55 109.45 151.22 109.85 143.62 107.56
  A 0.38 0.38 0.0 0 1 143.37 107.08
  L 147.36 94.74
  Q 147.55 94.15 148.14 94.35
  C 149.59 94.84 151.09 95.39 152.62 95.47
  Q 161.87 95.93 165.82 87.80
  Q 166.09 87.26 165.68 86.81
  Q 149.90 69.59 144.08 46.81
  A 0.38 0.37 -6.2 0 1 144.46 46.34
  L 156.75 46.86
  Q 157.30 46.89 157.42 47.43
  Q 160.64 61.96 170.65 72.89
  Q 171.12 73.40 171.34 72.74
  Z"
/>
<path fill="#0099ff" d="
  M 461.56 55.77
  Q 461.99 55.43 462.47 55.27
  Q 462.98 55.10 463.23 55.57
  C 468.76 65.98 470.09 77.36 463.12 87.45
  Q 459.69 92.42 452.76 93.78
  C 432.41 97.76 425.67 79.10 429.06 62.83
  C 431.76 49.81 442.97 44.25 455.44 45.80
  Q 460.48 46.43 465.35 49.60
  Q 465.87 49.94 465.46 50.40
  Q 463.29 52.79 461.33 55.54
  Q 460.64 56.51 461.56 55.77
  Z
  M 452.68 61.59
  L 456.52 58.93
  A 0.34 0.34 0.0 0 0 456.45 58.33
  C 450.96 56.18 444.27 56.29 441.82 62.58
  C 439.98 67.29 439.58 75.11 443.48 79.34
  C 447.42 83.61 453.66 80.87 454.72 75.52
  Q 456.03 68.90 452.50 62.37
  Q 452.24 61.89 452.68 61.59
  Z"
/>
<path fill="#0099ff" d="
  M 112.76 51.73
  C 115.25 49.15 118.25 47.20 121.73 46.22
  C 126.58 44.85 132.22 47.53 134.71 51.49
  Q 136.43 54.23 137.27 59.12
  Q 140.53 78.02 135.62 95.83
  Q 135.53 96.15 135.22 96.04
  L 123.52 92.03
  A 0.67 0.66 16.5 0 1 123.09 91.25
  Q 125.81 80.15 125.97 68.51
  Q 126.03 64.39 124.61 61.89
  C 121.91 57.10 116.59 62.14 114.64 64.92
  Q 114.27 65.45 113.75 65.07
  L 110.76 62.88
  Q 110.17 62.46 110.06 63.17
  Q 107.69 77.46 113.88 91.62
  A 0.60 0.59 -21.3 0 1 113.52 92.43
  L 102.25 96.13
  Q 101.62 96.33 101.38 95.71
  Q 94.15 76.64 97.56 58.01
  Q 98.51 52.80 101.46 46.86
  Q 101.72 46.34 102.28 46.51
  L 112.20 49.51
  Q 112.73 49.67 112.59 50.21
  L 112.28 51.46
  Q 112.01 52.51 112.76 51.73
  Z"
/>
<path fill="#0099ff" d="
  M 242.72 51.72
  C 246.12 48.34 251.68 44.80 256.71 46.08
  C 263.64 47.84 266.12 52.41 267.29 59.21
  Q 270.53 78.00 265.62 95.84
  A 0.30 0.30 0.0 0 1 265.24 96.05
  L 253.51 92.03
  A 0.65 0.64 16.1 0 1 253.09 91.28
  Q 255.89 79.23 255.98 68.31
  Q 256.00 64.80 254.80 62.24
  C 252.28 56.87 246.66 62.02 244.66 64.91
  Q 244.28 65.45 243.74 65.06
  L 240.69 62.84
  Q 240.17 62.47 240.07 63.10
  Q 237.67 77.42 243.88 91.62
  A 0.60 0.59 -21.3 0 1 243.52 92.43
  L 232.25 96.13
  Q 231.62 96.33 231.39 95.71
  Q 225.17 79.66 226.84 62.68
  C 227.44 56.61 229.06 51.83 231.61 46.62
  Q 231.75 46.34 232.04 46.43
  L 241.95 49.44
  Q 242.73 49.68 242.52 50.46
  L 242.27 51.46
  Q 242.02 52.43 242.72 51.72
  Z"
/>
<path fill="#0099ff" d="
  M 401.80 55.18
  Q 410.84 49.19 421.98 45.82
  Q 422.62 45.62 422.56 46.30
  Q 422.02 51.88 421.45 56.94
  Q 421.41 57.30 421.44 57.65
  Q 421.56 58.94 420.27 59.17
  Q 410.13 60.93 400.58 67.40
  A 1.03 1.00 76.1 0 0 400.13 68.17
  C 399.47 75.30 401.23 83.39 402.99 90.49
  Q 403.14 91.12 402.52 91.28
  L 392.00 93.95
  Q 391.36 94.11 391.13 93.49
  C 387.33 82.97 387.23 71.61 387.77 60.59
  Q 388.11 53.53 390.07 46.37
  Q 390.23 45.76 390.85 45.86
  L 402.41 47.70
  Q 402.96 47.79 402.82 48.34
  L 401.20 54.76
  Q 400.95 55.74 401.80 55.18
  Z"
/>
<path fill="#0099ff" d="
  M 86.00 90.98
  L 75.27 96.10
  Q 74.76 96.34 74.55 95.82
  Q 71.69 88.83 70.86 83.96
  Q 67.95 66.80 73.88 48.64
  Q 74.07 48.06 74.66 48.24
  L 85.45 51.60
  Q 85.99 51.77 85.81 52.31
  Q 81.41 65.42 82.19 76.52
  Q 82.65 83.03 86.31 90.04
  A 0.69 0.69 0.0 0 1 86.00 90.98
  Z"
/>
<path fill="#0099ff" d="
  M 216.00 90.98
  L 205.27 96.10
  Q 204.75 96.35 204.54 95.81
  Q 201.60 88.44 200.80 83.55
  Q 198.03 66.64 203.89 48.64
  Q 204.08 48.06 204.66 48.24
  L 215.46 51.60
  A 0.59 0.59 0.0 0 1 215.84 52.36
  C 212.49 61.77 210.41 74.23 213.56 83.42
  Q 214.71 86.78 216.30 90.15
  Q 216.56 90.71 216.00 90.98
  Z"
/>
<rect fill="#0099ff" x="275.00" y="57.00" width="58.00" height="8.00" rx="0.30"/>
<path fill="#656565" d="
  M 196.15 119.50
  L 195.41 118.27
  A 0.32 0.32 0.0 0 1 195.59 117.80
  L 197.38 117.23
  A 0.32 0.32 0.0 0 1 197.75 117.37
  L 199.24 119.83
  A 0.32 0.32 0.0 0 0 199.51 119.98
  L 208.31 120.02
  A 0.32 0.32 0.0 0 1 208.63 120.34
  L 208.62 125.33
  A 0.32 0.32 0.0 0 1 208.31 125.65
  L 206.44 125.73
  A 0.32 0.32 0.0 0 1 206.10 125.41
  L 206.06 122.65
  A 0.32 0.32 0.0 0 0 205.74 122.34
  L 188.93 122.33
  A 0.32 0.32 0.0 0 0 188.61 122.65
  L 188.61 125.34
  A 0.32 0.32 0.0 0 1 188.30 125.66
  L 186.57 125.70
  A 0.32 0.32 0.0 0 1 186.24 125.38
  L 186.20 120.33
  A 0.32 0.32 0.0 0 1 186.52 120.01
  L 195.88 119.98
  A 0.32 0.32 0.0 0 0 196.15 119.50
  Z"
/>
<path fill="#656565" d="
  M 122.56 124.04
  L 117.25 124.03
  A 0.91 0.90 14.6 0 0 116.44 124.50
  L 114.69 127.68
  Q 114.25 128.48 113.51 127.93
  L 112.90 127.47
  Q 112.16 126.91 112.16 127.83
  L 112.14 138.51
  Q 112.14 139.15 111.49 139.15
  L 105.75 139.15
  A 0.52 0.51 10.9 0 0 105.27 139.47
  Q 105.04 140.00 105.19 140.59
  Q 105.32 141.12 104.81 141.29
  Q 104.23 141.48 103.61 141.41
  Q 103.00 141.35 103.00 140.74
  L 103.01 122.57
  A 0.68 0.67 -90.0 0 1 103.68 121.89
  L 105.26 121.90
  Q 105.92 121.90 106.05 121.25
  L 106.73 117.99
  A 0.46 0.46 0.0 0 1 107.27 117.63
  L 108.98 117.97
  Q 109.42 118.06 109.27 118.47
  L 108.25 121.28
  Q 108.04 121.86 108.66 121.87
  L 111.53 121.91
  Q 112.14 121.92 112.14 122.53
  L 112.16 124.95
  Q 112.19 127.33 113.32 125.23
  Q 115.15 121.84 116.14 118.13
  Q 116.32 117.44 116.99 117.67
  L 118.23 118.09
  Q 118.80 118.29 118.61 118.86
  L 117.84 121.13
  Q 117.63 121.75 118.29 121.75
  L 124.77 121.77
  Q 125.38 121.77 125.37 122.38
  Q 125.22 130.08 124.56 137.55
  C 124.17 142.03 121.23 142.39 117.51 141.90
  A 0.45 0.45 0.0 0 1 117.11 141.49
  Q 117.03 140.47 116.56 139.53
  A 0.14 0.14 0.0 0 1 116.73 139.34
  Q 118.73 140.07 120.82 139.82
  Q 121.49 139.74 121.76 139.12
  Q 122.42 137.54 122.57 135.78
  Q 123.03 130.33 123.16 124.66
  Q 123.18 124.04 122.56 124.04
  Z
  M 110.0086 124.8730
  A 0.84 0.84 0.0 0 0 109.1627 124.0389
  L 105.9628 124.0612
  A 0.84 0.84 0.0 0 0 105.1287 124.9071
  L 105.1514 128.1670
  A 0.84 0.84 0.0 0 0 105.9973 129.0011
  L 109.1972 128.9788
  A 0.84 0.84 0.0 0 0 110.0313 128.1329
  L 110.0086 124.8730
  Z
  M 109.9839 131.7732
  A 0.63 0.63 0.0 0 0 109.3495 131.1476
  L 105.7696 131.1726
  A 0.63 0.63 0.0 0 0 105.1440 131.8070
  L 105.1761 136.4068
  A 0.63 0.63 0.0 0 0 105.8105 137.0324
  L 109.3904 137.0074
  A 0.63 0.63 0.0 0 0 110.0160 136.3730
  L 109.9839 131.7732
  Z"
/>
<path fill="#656565" d="
  M 286.76 122.61
  Q 287.24 123.81 286.30 124.95
  Q 285.52 125.89 286.74 125.92
  L 291.29 126.04
  Q 292.02 126.06 292.00 126.79
  L 291.97 127.73
  Q 291.95 128.15 291.52 128.15
  L 269.00 128.15
  Q 268.36 128.15 268.37 127.50
  L 268.37 126.65
  A 0.61 0.61 0.0 0 1 268.96 126.04
  L 273.95 125.92
  Q 275.05 125.89 274.47 124.96
  Q 273.89 124.04 273.82 122.98
  Q 273.76 122.17 272.95 122.15
  L 270.46 122.09
  Q 269.84 122.07 269.85 121.46
  L 269.85 120.60
  A 0.66 0.66 0.0 0 1 270.51 119.95
  L 278.08 119.95
  Q 278.68 119.95 278.83 119.37
  Q 278.94 118.97 278.71 118.61
  Q 278.24 117.87 279.09 117.68
  Q 280.99 117.23 281.52 119.14
  A 1.08 1.07 82.4 0 0 282.54 119.92
  L 290.04 119.97
  Q 290.85 119.97 290.81 120.79
  L 290.79 121.16
  Q 290.74 122.06 289.84 122.09
  L 287.05 122.17
  Q 286.59 122.18 286.76 122.61
  Z
  M 284.06 122.18
  L 276.46 122.08
  A 0.41 0.41 0.0 0 0 276.05 122.49
  L 276.05 122.61
  A 3.33 3.02 -89.3 0 0 279.03 125.98
  L 281.41 126.00
  A 3.33 3.02 -89.3 0 0 284.47 122.71
  L 284.47 122.59
  A 0.41 0.41 0.0 0 0 284.06 122.18
  Z"
/>
<path fill="#656565" d="
  M 232.00 129.38
  L 233.04 129.07
  A 0.66 0.66 0.0 0 1 233.89 129.67
  L 233.91 130.42
  A 0.97 0.96 -13.6 0 1 233.34 131.34
  Q 232.82 131.58 232.26 131.61
  A 0.76 0.75 -1.7 0 0 231.55 132.35
  Q 231.50 135.52 231.60 138.52
  Q 231.74 142.56 227.36 141.88
  Q 227.07 141.84 226.99 141.55
  L 226.56 139.80
  A 0.17 0.16 -7.9 0 1 226.72 139.59
  L 228.50 139.63
  Q 229.14 139.64 229.14 139.00
  L 229.14 133.44
  Q 229.14 132.64 228.39 132.91
  L 226.90 133.46
  Q 226.43 133.63 226.29 133.15
  L 225.87 131.75
  Q 225.70 131.16 226.29 131.00
  L 228.66 130.36
  Q 229.15 130.22 229.15 129.71
  L 229.13 125.70
  Q 229.13 125.02 228.45 125.02
  L 226.68 125.05
  Q 226.05 125.05 226.07 124.43
  L 226.12 123.30
  A 0.55 0.55 0.0 0 1 226.67 122.76
  L 228.59 122.73
  Q 229.15 122.72 229.15 122.16
  L 229.13 118.07
  A 0.30 0.30 0.0 0 1 229.44 117.77
  L 231.30 117.79
  Q 231.56 117.79 231.56 118.05
  L 231.55 122.15
  Q 231.55 122.74 232.15 122.74
  L 233.23 122.73
  Q 233.99 122.73 234.00 123.49
  L 234.00 124.52
  Q 234.00 125.05 233.48 125.05
  L 232.01 125.04
  Q 231.55 125.03 231.55 125.49
  L 231.55 129.05
  A 0.35 0.35 0.0 0 0 232.00 129.38
  Z"
/>
<path fill="#656565" d="
  M 240.93 122.90
  L 243.94 123.01
  Q 244.47 123.02 244.68 122.54
  L 246.52 118.21
  Q 246.71 117.74 247.20 117.89
  L 248.74 118.34
  A 0.48 0.48 0.0 0 1 249.03 119.03
  L 247.25 122.36
  Q 246.93 122.94 247.60 122.96
  L 249.41 123.01
  Q 250.05 123.02 250.02 123.66
  L 249.98 124.74
  A 0.68 0.67 -86.2 0 1 249.26 125.38
  L 247.78 125.29
  A 0.69 0.68 -87.6 0 0 247.05 125.97
  L 247.03 129.50
  Q 247.03 129.98 247.50 129.99
  L 250.24 130.03
  Q 250.69 130.04 250.67 130.49
  L 250.57 132.03
  Q 250.55 132.37 250.21 132.37
  L 247.72 132.36
  Q 247.04 132.35 247.04 133.03
  L 247.04 141.52
  A 0.56 0.55 -89.5 0 1 246.48 142.08
  L 245.08 142.08
  Q 244.59 142.07 244.59 141.58
  L 244.58 132.66
  Q 244.58 132.36 244.29 132.36
  L 241.33 132.36
  A 0.38 0.37 0.8 0 0 240.96 132.71
  Q 240.51 138.42 236.47 141.94
  Q 236.08 142.29 235.68 141.95
  L 234.38 140.81
  A 0.39 0.39 0.0 0 1 234.42 140.19
  Q 237.98 137.82 238.60 132.98
  Q 238.68 132.35 238.04 132.35
  L 235.35 132.37
  Q 234.72 132.37 234.70 131.74
  L 234.66 130.81
  Q 234.62 130.00 235.44 129.99
  L 238.30 129.98
  Q 238.82 129.97 238.81 129.45
  L 238.73 125.76
  Q 238.72 125.29 238.26 125.30
  L 236.31 125.36
  Q 235.75 125.38 235.76 124.81
  L 235.78 123.37
  Q 235.79 123.03 236.13 123.02
  L 238.86 122.98
  Q 239.52 122.97 239.22 122.38
  L 237.49 119.01
  A 0.42 0.41 67.3 0 1 237.73 118.42
  L 238.91 118.06
  Q 239.46 117.89 239.75 118.39
  L 241.56 121.62
  Q 241.91 122.24 241.20 122.19
  Q 240.90 122.17 240.70 122.42
  Q 240.35 122.88 240.93 122.90
  Z
  M 244.5831 125.6740
  A 0.34 0.34 0.0 0 0 244.2419 125.3352
  L 241.4819 125.3448
  A 0.34 0.34 0.0 0 0 241.1431 125.6860
  L 241.1569 129.6460
  A 0.34 0.34 0.0 0 0 241.4981 129.9848
  L 244.2581 129.9752
  A 0.34 0.34 0.0 0 0 244.5969 129.6340
  L 244.5831 125.6740
  Z"
/>
<path fill="#656565" d="
  M 366.68 135.89
  Q 364.15 139.95 359.50 141.95
  Q 359.28 142.04 359.11 141.87
  L 357.79 140.56
  A 0.19 0.18 -34.4 0 1 357.85 140.26
  Q 362.24 138.49 364.88 134.57
  A 0.29 0.29 0.0 0 0 364.64 134.12
  L 359.73 134.14
  Q 359.06 134.15 359.04 133.48
  L 359.00 132.47
  A 0.53 0.53 0.0 0 1 359.53 131.92
  L 360.29 131.92
  Q 360.93 131.92 360.89 131.29
  Q 360.76 129.24 360.87 127.09
  C 360.98 124.96 358.84 124.49 357.12 124.87
  Q 356.64 124.98 356.64 125.48
  L 356.67 129.40
  A 0.26 0.26 0.0 0 0 357.05 129.63
  L 358.05 129.13
  Q 358.70 128.80 359.08 129.42
  Q 359.58 130.25 359.10 131.01
  Q 358.82 131.44 358.34 131.59
  L 357.20 131.93
  Q 356.63 132.10 356.63 132.70
  Q 356.63 135.74 356.69 139.09
  C 356.73 141.62 354.78 142.30 352.51 141.82
  Q 352.26 141.77 352.21 141.52
  L 351.83 139.77
  A 0.15 0.15 0.0 0 1 351.98 139.59
  L 353.55 139.61
  A 0.67 0.67 0.0 0 0 354.23 138.94
  L 354.25 133.55
  Q 354.25 132.81 353.54 133.03
  L 351.98 133.51
  A 0.38 0.38 0.0 0 1 351.50 133.24
  L 351.10 131.76
  A 0.55 0.55 0.0 0 1 351.49 131.09
  L 353.58 130.55
  Q 354.25 130.37 354.25 129.67
  L 354.24 125.41
  Q 354.24 124.84 353.66 124.84
  L 351.68 124.84
  Q 351.27 124.84 351.28 124.43
  L 351.33 123.31
  Q 351.35 122.72 351.94 122.71
  L 353.65 122.71
  A 0.61 0.61 0.0 0 0 354.25 122.10
  L 354.24 118.21
  Q 354.23 117.66 354.79 117.67
  L 356.18 117.69
  Q 356.66 117.69 356.66 118.18
  L 356.65 122.27
  A 0.51 0.51 0.0 0 0 357.33 122.75
  Q 358.89 122.20 359.24 123.77
  Q 359.36 124.28 359.72 123.90
  Q 362.38 121.10 364.04 118.05
  Q 364.31 117.57 364.83 117.71
  L 366.10 118.04
  A 0.52 0.52 0.0 0 1 366.38 118.85
  L 366.10 119.23
  Q 365.58 119.93 366.45 119.93
  L 371.56 119.94
  A 1.08 1.07 20.6 0 1 372.37 121.72
  L 370.85 123.47
  Q 370.39 124.00 371.09 124.02
  L 373.05 124.10
  Q 373.48 124.11 373.48 124.55
  L 373.45 131.29
  Q 373.45 131.92 374.08 131.96
  Q 374.54 131.99 374.95 132.17
  Q 375.20 132.28 375.20 132.55
  L 375.18 133.73
  A 0.41 0.40 -0.0 0 1 374.77 134.13
  L 369.20 134.14
  Q 368.57 134.14 368.91 134.68
  Q 371.15 138.26 374.94 139.70
  Q 375.81 140.03 375.21 140.74
  L 374.67 141.36
  Q 374.07 142.07 373.26 141.62
  Q 369.32 139.47 367.30 135.91
  Q 367.00 135.37 366.68 135.89
  Z
  M 364.62 122.04
  A 0.35 0.35 0.0 0 0 364.37 122.15
  L 363.08 123.47
  A 0.35 0.35 0.0 0 0 363.33 124.07
  L 367.61 124.06
  A 0.35 0.35 0.0 0 0 367.86 123.95
  L 369.15 122.62
  A 0.35 0.35 0.0 0 0 368.89 122.03
  L 364.62 122.04
  Z
  M 366.0960 126.6181
  A 0.58 0.58 0.0 0 0 365.5272 126.0271
  L 363.8076 125.9940
  A 0.58 0.58 0.0 0 0 363.2165 126.5628
  L 363.1240 131.3819
  A 0.58 0.58 0.0 0 0 363.6928 131.9729
  L 365.4124 132.0060
  A 0.58 0.58 0.0 0 0 366.0035 131.4372
  L 366.0960 126.6181
  Z
  M 371.0505 126.4607
  A 0.40 0.40 0.0 0 0 370.6569 126.0545
  L 368.8571 126.0262
  A 0.40 0.40 0.0 0 0 368.4508 126.4199
  L 368.3695 131.5993
  A 0.40 0.40 0.0 0 0 368.7631 132.0055
  L 370.5629 132.0338
  A 0.40 0.40 0.0 0 0 370.9692 131.6401
  L 371.0505 126.4607
  Z"
/>
<path fill="#656565" d="
  M 30.03 125.63
  L 42.55 125.63
  Q 42.96 125.63 42.97 126.05
  L 43.02 127.49
  A 0.51 0.50 -0.6 0 1 42.51 128.00
  L 29.78 127.99
  Q 28.76 127.99 28.50 128.97
  L 28.27 129.82
  Q 28.00 130.85 29.07 130.85
  L 39.44 130.85
  Q 42.45 130.84 40.28 132.94
  L 35.14 137.89
  Q 34.65 138.37 35.28 138.65
  L 38.02 139.86
  A 0.59 0.59 0.0 0 1 38.28 140.72
  L 37.57 141.87
  A 0.65 0.64 -59.9 0 1 36.73 142.10
  Q 31.45 139.35 25.62 137.72
  Q 25.07 137.57 25.37 137.08
  L 26.04 136.01
  A 0.63 0.63 0.0 0 1 26.76 135.73
  L 31.55 137.21
  Q 32.11 137.38 32.53 136.98
  L 36.08 133.66
  Q 36.77 133.02 35.82 133.01
  L 25.30 132.98
  Q 24.58 132.98 24.82 132.30
  L 26.08 128.70
  Q 26.32 128.01 25.59 128.00
  L 20.21 127.98
  Q 19.69 127.98 19.72 127.46
  L 19.79 126.21
  Q 19.82 125.63 20.40 125.63
  L 26.42 125.64
  Q 27.02 125.64 27.22 125.07
  L 27.74 123.58
  Q 27.94 123.02 27.34 123.01
  L 22.43 122.99
  Q 21.88 122.99 21.89 122.43
  L 21.92 121.03
  Q 21.93 120.63 22.33 120.63
  L 27.97 120.63
  Q 28.41 120.63 28.58 120.23
  Q 28.88 119.51 28.92 118.72
  A 0.83 0.83 0.0 0 1 29.76 117.93
  L 31.27 117.93
  Q 31.88 117.94 31.70 118.52
  L 31.24 119.98
  Q 31.04 120.63 31.72 120.63
  L 40.61 120.63
  Q 40.90 120.63 40.97 120.91
  Q 41.18 121.71 41.06 122.54
  Q 41.00 122.99 40.55 123.00
  L 30.68 123.01
  Q 30.36 123.01 30.28 123.32
  L 29.77 125.28
  Q 29.68 125.63 30.03 125.63
  Z"
/>
<path fill="#656565" d="
  M 311.52 123.00
  L 309.48 122.95
  A 0.46 0.46 0.0 0 1 309.03 122.48
  L 309.05 121.27
  Q 309.05 120.84 309.48 120.84
  L 311.97 120.86
  Q 312.60 120.87 312.71 120.25
  L 313.03 118.37
  A 0.50 0.50 0.0 0 1 313.64 117.97
  L 314.93 118.27
  Q 315.47 118.39 315.34 118.93
  L 315.04 120.26
  Q 314.90 120.87 315.52 120.86
  L 318.53 120.84
  Q 318.98 120.83 318.98 121.28
  L 318.99 122.50
  A 0.49 0.49 0.0 0 1 318.50 123.00
  L 314.77 123.00
  Q 314.23 123.00 314.05 123.50
  L 312.33 128.31
  Q 312.10 128.94 312.77 128.97
  L 313.56 129.02
  Q 314.16 129.05 314.16 128.44
  L 314.17 125.33
  Q 314.17 124.83 314.67 124.83
  L 315.93 124.83
  Q 316.54 124.83 316.53 125.43
  L 316.49 128.36
  A 0.64 0.63 1.4 0 0 317.11 129.00
  L 318.47 129.05
  Q 318.93 129.07 318.95 129.53
  Q 318.99 130.20 318.81 130.84
  Q 318.66 131.39 318.10 131.35
  L 317.02 131.28
  Q 316.54 131.25 316.54 131.73
  L 316.51 133.76
  Q 316.51 134.27 317.01 134.19
  L 319.44 133.81
  A 0.43 0.42 -7.0 0 1 319.93 134.19
  L 320.03 135.26
  A 0.65 0.63 -7.7 0 1 319.49 135.95
  L 317.04 136.34
  Q 316.52 136.43 316.52 136.96
  L 316.53 141.72
  Q 316.53 141.97 316.28 141.97
  L 314.55 141.97
  Q 314.13 141.97 314.13 141.55
  L 314.17 137.55
  Q 314.17 136.92 313.55 137.02
  L 309.77 137.64
  Q 309.31 137.72 309.23 137.26
  L 308.96 135.74
  A 0.35 0.34 81.1 0 1 309.25 135.34
  L 313.65 134.69
  Q 314.15 134.62 314.16 134.10
  L 314.17 131.97
  Q 314.17 131.27 313.47 131.29
  L 310.82 131.37
  A 1.28 1.27 -80.1 0 1 309.60 129.63
  L 311.96 123.66
  Q 312.21 123.02 311.52 123.00
  Z"
/>
<path fill="#656565" d="
  M 327.69 133.02
  L 321.77 132.97
  A 0.54 0.53 -80.5 0 1 321.27 132.26
  L 322.47 128.75
  Q 322.70 128.07 321.99 128.03
  L 319.77 127.94
  Q 319.01 127.90 319.12 127.14
  L 319.20 126.64
  Q 319.32 125.86 320.11 125.86
  L 322.48 125.83
  Q 323.43 125.82 323.62 124.90
  L 323.87 123.72
  Q 324.02 123.04 323.33 123.04
  L 320.52 123.03
  A 0.52 0.52 0.0 0 1 320.00 122.52
  L 319.96 121.59
  Q 319.94 120.87 320.66 120.87
  L 324.06 120.88
  A 0.79 0.78 -84.9 0 0 324.84 120.22
  L 325.08 118.75
  A 0.86 0.85 7.0 0 1 325.99 118.04
  L 327.26 118.13
  A 0.49 0.48 10.6 0 1 327.69 118.75
  L 327.25 120.23
  Q 327.07 120.86 327.72 120.86
  L 331.79 120.89
  Q 332.19 120.89 332.20 121.29
  L 332.25 122.25
  Q 332.28 123.03 331.50 123.03
  L 326.97 123.04
  Q 326.46 123.04 326.36 123.53
  L 326.00 125.24
  Q 325.88 125.84 326.49 125.84
  L 332.51 125.85
  Q 333.16 125.86 333.16 126.51
  L 333.18 127.53
  Q 333.18 128.00 332.72 128.00
  L 326.00 127.99
  Q 324.97 127.99 324.75 129.00
  L 324.54 129.98
  Q 324.35 130.83 325.23 130.84
  L 331.28 130.87
  A 0.83 0.83 0.0 0 1 331.93 132.20
  L 327.95 137.32
  A 0.66 0.65 37.3 0 0 328.08 138.24
  L 330.44 140.02
  Q 330.69 140.21 330.49 140.45
  L 329.33 141.87
  A 0.39 0.39 0.0 0 1 328.77 141.91
  Q 325.62 139.08 321.98 137.00
  A 0.58 0.57 37.7 0 1 321.86 136.09
  Q 323.40 134.59 324.92 136.27
  A 0.64 0.64 0.0 0 0 325.89 136.24
  L 327.99 133.67
  Q 328.51 133.03 327.69 133.02
  Z"
/>
<path fill="#656565" d="
  M 74.36 138.20
  L 74.36 118.57
  A 0.36 0.36 0.0 0 1 74.72 118.21
  L 76.54 118.18
  A 0.36 0.36 0.0 0 1 76.90 118.54
  L 76.89 138.21
  A 0.36 0.36 0.0 0 0 77.25 138.57
  L 83.72 138.56
  A 0.36 0.36 0.0 0 1 84.08 138.92
  L 84.08 140.64
  A 0.36 0.36 0.0 0 1 83.72 141.00
  L 60.98 141.00
  A 0.36 0.36 0.0 0 1 60.62 140.64
  L 60.62 138.92
  A 0.36 0.36 0.0 0 1 60.98 138.56
  L 67.45 138.56
  A 0.36 0.36 0.0 0 0 67.81 138.20
  L 67.81 118.54
  A 0.36 0.36 0.0 0 1 68.18 118.18
  L 70.00 118.20
  A 0.36 0.36 0.0 0 1 70.35 118.56
  L 70.34 138.20
  A 0.36 0.36 0.0 0 0 70.70 138.56
  L 74.00 138.56
  A 0.36 0.36 0.0 0 0 74.36 138.20
  Z"
/>
<rect fill="#656565" x="-2.86" y="-1.10" transform="translate(147.65,120.58) rotate(28.1)" width="5.72" height="2.20" rx="0.53"/>
<path fill="#656565" d="
  M 451.71 136.69
  L 457.71 139.72
  Q 458.29 140.01 457.79 140.43
  L 456.60 141.43
  Q 456.16 141.80 455.67 141.50
  Q 452.77 139.74 449.56 138.23
  Q 449.00 137.97 448.83 137.38
  Q 448.75 137.08 448.99 136.89
  Q 449.62 136.39 448.82 136.31
  Q 445.77 136.00 442.58 136.22
  Q 441.50 136.29 442.40 136.88
  L 442.75 137.11
  Q 443.43 137.55 442.78 138.03
  Q 439.56 140.41 435.73 141.72
  A 0.36 0.34 -31.1 0 1 435.37 141.64
  L 433.96 140.25
  A 0.17 0.17 0.0 0 1 434.02 139.97
  Q 437.36 138.76 440.50 136.78
  Q 441.24 136.31 440.37 136.24
  Q 437.79 136.02 434.69 136.21
  Q 434.16 136.25 434.12 135.71
  L 434.05 134.78
  A 0.70 0.70 0.0 0 1 434.72 134.03
  L 437.44 133.94
  A 0.62 0.62 0.0 0 0 438.04 133.32
  L 437.94 119.55
  A 0.51 0.50 -0.6 0 1 438.45 119.04
  L 453.55 119.02
  Q 454.34 119.02 454.34 119.80
  L 454.33 133.26
  Q 454.33 133.94 455.01 133.97
  L 457.30 134.05
  A 0.72 0.72 0.0 0 1 458.00 134.80
  L 457.95 135.61
  Q 457.93 136.15 457.39 136.15
  L 451.83 136.18
  Q 450.72 136.19 451.71 136.69
  Z
  M 451.9501 121.9709
  A 0.93 0.93 0.0 0 0 451.0250 121.0361
  L 441.0651 120.9839
  A 0.93 0.93 0.0 0 0 440.1303 121.9091
  L 440.1299 121.9891
  A 0.93 0.93 0.0 0 0 441.0550 122.9239
  L 451.0149 122.9761
  A 0.93 0.93 0.0 0 0 451.9497 122.0509
  L 451.9501 121.9709
  Z
  M 451.6603 125.3698
  A 0.54 0.54 0.0 0 0 451.1212 124.8289
  L 440.9212 124.8111
  A 0.54 0.54 0.0 0 0 440.3803 125.3502
  L 440.3797 125.6702
  A 0.54 0.54 0.0 0 0 440.9188 126.2111
  L 451.1188 126.2289
  A 0.54 0.54 0.0 0 0 451.6597 125.6898
  L 451.6603 125.3698
  Z
  M 451.83 128.87
  A 0.80 0.80 0.0 0 0 451.03 128.07
  L 441.13 128.07
  A 0.80 0.80 0.0 0 0 440.33 128.87
  L 440.33 129.37
  A 0.80 0.80 0.0 0 0 441.13 130.17
  L 451.03 130.17
  A 0.80 0.80 0.0 0 0 451.83 129.37
  L 451.83 128.87
  Z
  M 451.9399 132.9597
  A 0.90 0.90 0.0 0 0 451.0384 132.0613
  L 441.0184 132.0787
  A 0.90 0.90 0.0 0 0 440.1200 132.9803
  L 440.1201 133.0403
  A 0.90 0.90 0.0 0 0 441.0216 133.9387
  L 451.0416 133.9213
  A 0.90 0.90 0.0 0 0 451.9400 133.0197
  L 451.9399 132.9597
  Z"
/>
<path fill="#656565" d="
  M 158.77 137.27
  Q 155.74 140.27 151.74 141.97
  Q 151.27 142.17 150.96 141.76
  L 150.18 140.74
  Q 149.75 140.18 150.40 139.91
  Q 154.43 138.23 157.41 135.25
  Q 157.76 134.89 157.50 134.47
  Q 154.13 129.10 152.83 122.73
  A 0.96 0.95 7.8 0 0 152.32 122.06
  Q 151.25 121.53 151.65 120.31
  Q 151.80 119.85 152.28 119.85
  L 165.50 119.85
  A 0.71 0.71 0.0 0 1 166.20 120.65
  Q 165.20 128.72 161.07 134.49
  A 0.66 0.65 -48.1 0 0 161.11 135.31
  Q 163.71 138.27 167.54 140.04
  Q 167.73 140.12 167.60 140.28
  L 166.26 141.93
  A 0.31 0.31 0.0 0 1 165.89 142.02
  Q 162.26 140.31 159.64 137.30
  Q 159.22 136.82 158.77 137.27
  Z
  M 163.62 123.46
  A 1.08 1.08 0.0 0 0 162.61 121.99
  L 156.11 122.01
  A 1.08 1.08 0.0 0 0 155.11 123.48
  L 158.37 131.81
  A 1.08 1.08 0.0 0 0 160.39 131.81
  L 163.62 123.46
  Z"
/>
<path fill="#656565" d="
  M 403.61 137.23
  L 403.62 123.43
  A 0.43 0.43 0.0 0 0 403.19 123.00
  L 394.85 122.98
  A 0.43 0.43 0.0 0 1 394.42 122.53
  L 394.48 120.84
  A 0.43 0.43 0.0 0 1 394.91 120.43
  L 415.08 120.44
  A 0.43 0.43 0.0 0 1 415.50 120.85
  L 415.56 122.55
  A 0.43 0.43 0.0 0 1 415.14 122.99
  L 406.79 123.00
  A 0.43 0.43 0.0 0 0 406.36 123.43
  L 406.36 137.24
  A 0.43 0.43 0.0 0 0 406.79 137.67
  L 416.49 137.68
  A 0.43 0.43 0.0 0 1 416.92 138.11
  L 416.93 139.73
  A 0.43 0.43 0.0 0 1 416.50 140.16
  L 393.47 140.15
  A 0.43 0.43 0.0 0 1 393.04 139.72
  L 393.05 138.10
  A 0.43 0.43 0.0 0 1 393.48 137.67
  L 403.18 137.66
  A 0.43 0.43 0.0 0 0 403.61 137.23
  Z"
/>
<rect fill="#656565" x="-1.24" y="-5.07" transform="translate(64.11,128.76) rotate(-20.6)" width="2.48" height="10.14" rx="0.49"/>
<rect fill="#656565" x="-1.19" y="-5.16" transform="translate(80.54,129.04) rotate(24.6)" width="2.38" height="10.32" rx="0.52"/>
<path fill="#656565" d="
  M 199.22 127.14
  L 190.99 127.16
  Q 190.32 127.16 190.30 126.49
  L 190.28 125.62
  Q 190.27 125.02 190.88 125.01
  L 202.54 125.00
  Q 206.01 125.00 203.50 127.40
  Q 201.56 129.25 198.89 130.88
  Q 198.58 131.07 198.60 131.45
  A 0.41 0.41 0.0 0 0 199.01 131.84
  L 208.44 131.86
  A 0.45 0.45 0.0 0 1 208.89 132.31
  L 208.88 133.60
  Q 208.88 134.21 208.27 134.21
  L 199.23 134.20
  Q 198.69 134.20 198.69 134.73
  Q 198.67 136.74 198.70 139.09
  C 198.75 142.28 194.97 142.21 192.67 141.97
  Q 192.37 141.94 192.27 141.67
  L 191.58 139.78
  A 0.16 0.15 -10.2 0 1 191.73 139.57
  L 195.22 139.62
  Q 196.06 139.63 196.06 138.78
  L 196.06 135.00
  Q 196.06 134.19 195.25 134.20
  L 186.49 134.21
  A 0.48 0.47 89.4 0 1 186.02 133.74
  L 185.99 132.18
  Q 185.99 131.84 186.32 131.84
  L 195.48 131.87
  Q 196.09 131.87 196.02 131.26
  Q 195.90 130.16 196.89 129.58
  Q 198.27 128.77 199.45 127.73
  Q 200.12 127.14 199.22 127.14
  Z"
/>
<rect fill="#656565" x="-2.91" y="-1.14" transform="translate(146.35,127.60) rotate(28.4)" width="5.82" height="2.28" rx="0.64"/>
<rect fill="#656565" x="-1.19" y="-3.64" transform="translate(118.10,131.24) rotate(-34.9)" width="2.38" height="7.28" rx="0.46"/>
<path fill="#656565" d="
  M 274.41 141.44
  Q 273.59 142.16 272.49 142.01
  A 0.72 0.71 -86.4 0 1 271.87 141.30
  L 271.87 130.50
  A 0.49 0.49 0.0 0 1 272.36 130.01
  L 288.13 130.00
  A 0.64 0.64 0.0 0 1 288.77 130.64
  L 288.77 141.28
  Q 288.77 141.88 288.19 141.99
  Q 287.14 142.20 286.36 141.52
  Q 285.88 141.09 285.23 141.09
  L 275.33 141.09
  Q 274.81 141.09 274.41 141.44
  Z
  M 286.3204 133.2906
  A 1.18 1.18 0.0 0 0 285.1425 132.1085
  L 275.3625 132.0915
  A 1.18 1.18 0.0 0 0 274.1805 133.2694
  L 274.1796 133.7894
  A 1.18 1.18 0.0 0 0 275.3575 134.9715
  L 285.1375 134.9885
  A 1.18 1.18 0.0 0 0 286.3195 133.8106
  L 286.3204 133.2906
  Z
  M 286.4203 137.8913
  A 0.93 0.93 0.0 0 0 285.4936 136.9581
  L 275.1537 136.9220
  A 0.93 0.93 0.0 0 0 274.2204 137.8487
  L 274.2197 138.0687
  A 0.93 0.93 0.0 0 0 275.1464 139.0019
  L 285.4863 139.0380
  A 0.93 0.93 0.0 0 0 286.4196 138.1113
  L 286.4203 137.8913
  Z"
/>
<path fill="#656565" d="
  M 150.45 133.73
  L 146.09 141.64
  A 0.31 0.31 0.0 0 1 145.62 141.73
  L 144.15 140.49
  A 0.31 0.31 0.0 0 1 144.08 140.09
  L 148.75 132.20
  A 0.31 0.31 0.0 0 1 149.24 132.15
  L 150.40 133.37
  A 0.31 0.31 0.0 0 1 150.45 133.73
  Z"
/>
</svg>
